<?xml version="1.0" encoding="UTF-8" standalone="no"?>
<!DOCTYPE svg  PUBLIC '-//W3C//DTD SVG 1.1//EN'  'http://www.w3.org/Graphics/SVG/1.1/DTD/svg11.dtd'>
<svg xmlns="http://www.w3.org/2000/svg" version="1.1">
<defs>
<font id="NarzissTextHeavy" horiz-adv-x="587">
<font-face units-per-em="1000" underline-thickness="50" unicode-range="U+0020-00FE" x-height="458" descent="-240" font-weight="400" font-family="NarzissTextHeavy" panose-1="2 0 5 4 9 0 0 2 0 3" underline-position="-150" cap-height="700" bbox="-36 -224 1029 970" ascent="760"/>
<missing-glyph/>
<glyph unicode=" " horiz-adv-x="257" glyph-name="space"/>
<glyph d="M160 238h-20q0 74 -20.5 139.5t-41 121.5t-20.5 108q0 47 25.5 72.5t66.5 25.5t67.5 -26t26.5 -72q0 -52 -21 -108t-42 -121.5t-21 -139.5zM242 82q0 -39 -27 -63.5t-67 -24.5q-41 0 -66.5 24t-25.5 62t27 62.5t67 24.5q41 0 66.5 -23.5t25.5 -61.5z" unicode="!" horiz-adv-x="297" glyph-name="exclam"/>
<glyph d="M156 381h-19q0 58 -36 131t-36 111q0 40 21 62t61 22q38 0 59.5 -22t21.5 -62q0 -38 -36 -111.5t-36 -130.5zM357 381h-19q0 58 -36 131t-36 111q0 40 21 62t61 22q38 0 60 -22t22 -62q0 -38 -36.5 -111.5t-36.5 -130.5z" unicode='&quot;' horiz-adv-x="495" glyph-name="quotedbl"/>
<glyph d="M510 119h-122l-19 -119h-58l19 119h-120l-19 -119h-58l19 119h-95v54h103l17 112h-100v54h108l19 119h59l-19 -119h120l19 119h58l-19 -119h108v-54h-116l-18 -112h114v-54zM338 173l17 112h-120l-17 -112h120z" unicode="#" glyph-name="numbersign"/>
<glyph d="M286 -111v100h-10q-45 0 -83.5 12.5t-66 25.5t-44.5 13q-27 0 -27 -37h-17v240h19q11 -101 65.5 -165.5t144.5 -64.5q13 0 19 1v248q-11 5 -45 18.5t-49 21t-43 22.5t-42 29.5t-30.5 36t-23.5 48.5t-7 59q0 87 61 146t179 65v112h21v-111h5q46 -1 101.5 -18.5t71.5 -17.5 q26 0 26 36h18v-237h-20q-10 96 -58 154t-131 58q-9 0 -13 -1v-243q13 -5 40 -15t43 -15.5t40 -17t39 -22t32.5 -27.5t27.5 -35.5t16.5 -44.5t6.5 -56q0 -96 -67 -152.5t-178 -64.5v-101h-21zM192 567q0 -78 94 -118v232q-46 -9 -70 -39.5t-24 -74.5zM401 137 q0 41 -24.5 67.5t-69.5 48.5v-236q46 11 70 44.5t24 75.5z" unicode="$" glyph-name="dollar"/>
<glyph d="M163 370q24 0 32 34t8 124t-8 125t-31 35q-25 0 -33 -33.5t-8 -123.5q0 -91 8 -126t32 -35zM163 349q-66 0 -103 48t-37 131q0 81 39 131t102 50q66 0 102.5 -47.5t36.5 -130.5q0 -82 -38.5 -132t-101.5 -50zM137 -25h-26q47 106 90.5 207t73.5 166q24 55 71.5 155.5 t101.5 219.5h27q-56 -125 -98.5 -226t-63.5 -149q-23 -51 -72.5 -151.5t-103.5 -221.5zM423 11q24 0 32 34t8 124t-8 125t-31 35q-25 0 -33 -33.5t-8 -123.5q0 -91 8 -126t32 -35zM423 -10q-66 0 -103 48t-37 131q0 81 39 131t102 50q66 0 102.5 -47.5t36.5 -130.5 q0 -82 -38.5 -132t-101.5 -50z" unicode="%" glyph-name="percent"/>
<glyph d="M437 377h-35q-74 0 -121.5 -46t-47.5 -134q0 -84 53 -135t149 -51t148 52t52 127q0 58 -27 90.5t-76 32.5q-42 0 -65.5 -14t-23.5 -30q0 -8 12 -8q31 0 53 -17.5t22 -50.5q0 -29 -21 -48.5t-56 -19.5q-38 0 -63 22.5t-25 59.5q0 58 43 93t132 35q63 0 99.5 13.5 t36.5 33.5q0 8 -12 8q-31 0 -52.5 18.5t-21.5 51.5q0 29 23 48t58 19q37 0 60.5 -22t23.5 -60q0 -43 -31.5 -75t-91.5 -46q81 -11 122 -48.5t41 -85.5q0 -83 -92 -142t-270 -59q-191 0 -286 57t-95 154q0 81 66 129.5t164 61.5q-69 9 -110 45.5t-41 91.5q0 78 70.5 122 t181.5 44q96 0 147 -36.5t51 -92.5q0 -35 -24 -59t-61 -24q-35 0 -57 18t-22 47q0 33 22 51.5t53 18.5q12 0 12 7q0 19 -23.5 33t-62.5 14q-50 0 -81.5 -35.5t-31.5 -103.5t28.5 -102t76.5 -34h27v-19z" unicode="&amp;" horiz-adv-x="848" glyph-name="ampersand"/>
<glyph d="M158 381h-19q0 58 -37 131t-37 111q0 40 22.5 62t61.5 22t62 -22.5t23 -61.5q0 -38 -38 -111.5t-38 -130.5z" unicode="&apos;" horiz-adv-x="299" glyph-name="quotesingle"/>
<glyph d="M373 -81v-25q-142 36 -233.5 145.5t-91.5 281.5q0 174 92 286.5t233 147.5v-24q-77 -22 -111 -112.5t-34 -290.5t34.5 -293.5t110.5 -115.5z" unicode="(" horiz-adv-x="397" glyph-name="parenleft"/>
<glyph d="M23 -106v23q77 22 111.5 114t34.5 292q0 199 -34.5 292t-111.5 115v25q142 -35 233.5 -146t91.5 -284t-91.5 -284.5t-233.5 -146.5z" unicode=")" horiz-adv-x="397" glyph-name="parenright"/>
<glyph d="M223 505q-15 -24 -17 -69t-15 -64q-14 -19 -35.5 -22.5t-44.5 12.5q-22 16 -26 39t10 42q13 16 55 32.5t60 37.5q-26 6 -69.5 -6.5t-65.5 -5.5q-23 8 -32.5 28t-1.5 46q9 26 28.5 36.5t42.5 2.5q20 -7 48.5 -42.5t54.5 -45.5q-1 28 -26.5 66.5t-25.5 60.5q0 25 16 40 t44 15q27 0 43 -15.5t16 -39.5q0 -22 -25 -60.5t-27 -66.5q26 10 55 45.5t49 42.5q23 8 42.5 -2.5t28.5 -36.5q8 -26 -1.5 -46t-32.5 -28q-22 -7 -66 5.5t-70 6.5q18 -21 60.5 -37.5t55.5 -32.5q14 -19 10 -42t-26 -39q-23 -16 -44.5 -12.5t-35.5 22.5t-15.5 64t-16.5 69z " unicode="*" horiz-adv-x="451" glyph-name="asterisk"/>
<glyph d="M320 22h-56v192h-191v57h191v191h56v-191h193v-57h-193v-192z" unicode="+" glyph-name="plus"/>
<glyph d="M53 -178v22q67 19 108 66t41 93q0 7 -7 7q-4 0 -20 -5t-32 -5q-37 0 -61.5 22.5t-24.5 63.5q0 39 24.5 63.5t65.5 24.5q45 0 70.5 -30t25.5 -79q0 -92 -50 -156.5t-140 -86.5z" unicode="," horiz-adv-x="297" glyph-name="comma"/>
<glyph d="M406 233h-335v61h335v-61z" unicode="-" horiz-adv-x="481" glyph-name="hyphen"/>
<glyph d="M241 82q0 -39 -27 -63.5t-67 -24.5q-41 0 -66.5 24t-25.5 62t27 62.5t67 24.5q41 0 66.5 -23.5t25.5 -61.5z" unicode="." horiz-adv-x="297" glyph-name="period"/>
<glyph d="M64 -25h-34q36 100 71.5 203t60.5 171q18 49 56.5 149.5t83.5 224.5h34q-45 -126 -78.5 -227.5t-49.5 -146.5q-17 -45 -58.5 -147.5t-85.5 -226.5z" unicode="/" horiz-adv-x="367" glyph-name="slash"/>
<glyph d="M291 12q48 0 69 55t21 162q0 218 -86 218q-50 0 -70.5 -53.5t-20.5 -160.5q0 -221 87 -221zM548 234q0 -104 -75 -173.5t-182 -69.5q-112 0 -183 66.5t-71 170.5q0 103 75.5 171.5t182.5 68.5q111 0 182 -65t71 -169z" unicode="0" glyph-name="zero"/>
<glyph d="M540 0h-478v22h150v396l-112 -19v25l297 53v-455h143v-22z" unicode="1" glyph-name="one"/>
<glyph d="M504 0h-470v7l225 174q42 32 61.5 66.5t19.5 82.5q0 54 -26.5 83.5t-77.5 29.5q-43 0 -68.5 -18.5t-25.5 -40.5q0 -8 11 -8q33 0 54.5 -18t21.5 -51q0 -35 -25.5 -57t-66.5 -22q-36 0 -59.5 25t-23.5 61q0 66 60 111t168 45q244 0 244 -142q0 -57 -54 -97.5t-153 -72.5 l-92 -31h141q72 0 114 16.5t60 57.5h21z" unicode="2" glyph-name="two"/>
<glyph d="M258 131h-105v18h102q107 1 107 151q0 66 -27 105.5t-79 39.5q-66 0 -104 -41.5t-47 -117.5h-18v179h19q0 -25 19 -25q10 0 58.5 14t96.5 14q122 0 190.5 -42.5t68.5 -119.5q0 -61 -44 -103t-115 -58q77 -10 123 -49.5t46 -105.5q0 -85 -76 -135t-204 -50 q-109 0 -166.5 42t-57.5 107q0 39 25 66t64 27t63 -21.5t24 -54.5q0 -36 -23 -55.5t-57 -19.5q-11 0 -11 -8q0 -22 30 -40t81 -18q67 0 102 43t35 113q0 65 -30 105t-90 40z" unicode="3" glyph-name="three"/>
<glyph d="M281 102v181l-144 -181h144zM520 -189h-306v21h67v168h-261l434 512v-409q61 1 89 64h20l-47 -167h-62v-169h66v-20z" unicode="4" glyph-name="four"/>
<glyph d="M487 320h-358l-28 -168q26 24 73.5 43.5t108.5 19.5q119 0 189 -48.5t70 -144.5q0 -99 -76 -158t-204 -59q-109 0 -166.5 42.5t-57.5 107.5q0 38 25.5 66t63.5 28q39 0 63 -21.5t24 -54.5q0 -36 -23 -55.5t-56 -19.5q-10 0 -12 -8q0 -22 28.5 -41t77.5 -19 q68 0 103.5 48.5t35.5 133.5q0 81 -35.5 123t-102.5 42q-44 0 -82 -17.5t-54 -34.5l-15 -17h-8l59 338h220q74 0 115.5 15.5t59.5 55.5h19z" unicode="5" glyph-name="five"/>
<glyph d="M432 687v-19q-65 -20 -126.5 -103.5t-82.5 -208.5q5 5 15 12.5t42.5 19.5t66.5 12q96 0 150.5 -49.5t54.5 -141.5q0 -97 -72 -156.5t-179 -59.5q-121 0 -189.5 65t-68.5 192q0 86 37.5 164.5t96 132.5t125 90t130.5 50zM301 14q77 0 77 183q0 80 -21 121t-70 41 q-19 0 -35.5 -7.5t-23.5 -15.5l-7 -7q-4 -34 -4 -76q0 -239 84 -239z" unicode="6" glyph-name="six"/>
<glyph d="M461 331h-230q-72 0 -114 -17.5t-59 -58.5h-21l57 203h465l-144 -252q-68 -118 -70 -286q0 -59 -25.5 -92t-68.5 -33q-35 0 -58 23t-23 58q0 65 42.5 137.5t121.5 162.5z" unicode="7" glyph-name="seven"/>
<glyph d="M378 341q81 -8 130 -50.5t49 -107.5q0 -89 -69.5 -139.5t-194.5 -50.5q-124 0 -193.5 48t-69.5 136q0 64 48.5 108t128.5 55q-73 14 -117 55.5t-44 100.5q0 85 68.5 130t177.5 45q113 0 181 -42t68 -127q0 -60 -44.5 -103.5t-118.5 -57.5zM293 13q90 0 90 159 q0 158 -91 158q-89 0 -89 -153q0 -164 90 -164zM292 348q78 0 78 151q0 79 -18.5 115.5t-59.5 36.5q-39 0 -56.5 -38.5t-17.5 -118.5q0 -146 74 -146z" unicode="8" glyph-name="eight"/>
<glyph d="M156 -206v20q66 19 127.5 100.5t81.5 204.5q-5 -5 -15 -12t-42.5 -19t-65.5 -12q-96 0 -151 48.5t-55 136.5q0 94 72.5 151t179.5 57q122 0 190 -62.5t68 -187.5q0 -85 -37.5 -161.5t-96.5 -128.5t-125 -86.5t-131 -48.5zM368 146q3 29 3 71q0 232 -83 232 q-78 0 -78 -177q0 -77 21 -116.5t70 -39.5q19 0 35.5 7.5t23.5 14.5z" unicode="9" glyph-name="nine"/>
<glyph d="M242 82q0 -39 -27 -63.5t-67 -24.5q-41 0 -66.5 24t-25.5 62t27 62.5t67 24.5q41 0 66.5 -23.5t25.5 -61.5zM242 372q0 -38 -27 -62.5t-67 -24.5q-41 0 -66.5 24t-25.5 62t27 62.5t67 24.5q41 0 66.5 -23.5t25.5 -62.5z" unicode=":" horiz-adv-x="297" glyph-name="colon"/>
<glyph d="M53 -182v22q67 19 108 66t41 93q0 7 -7 7q-4 0 -20 -5t-32 -5q-37 0 -61.5 22.5t-24.5 63.5q0 39 24.5 63.5t65.5 24.5q45 0 70.5 -30t25.5 -79q0 -92 -50 -156.5t-140 -86.5zM242 372q0 -38 -27 -62.5t-67 -24.5q-42 0 -67 24t-25 62t27 62.5t66 24.5q41 0 67 -23.5 t26 -62.5z" unicode=";" horiz-adv-x="297" glyph-name="semicolon"/>
<glyph d="M520 58l-430 154q-23 9 -23 32t23 31l430 154v-58l-362 -127l362 -127v-59z" unicode="&lt;" glyph-name="less"/>
<glyph d="M520 281h-453v57h453v-57zM520 147h-453v57h453v-57z" unicode="=" glyph-name="equal"/>
<glyph d="M497 212l-430 -154v59l361 127l-361 127v58l430 -154q23 -8 23 -31t-23 -32z" unicode="&gt;" glyph-name="greater"/>
<glyph d="M305 82q0 -39 -26.5 -63.5t-66.5 -24.5q-42 0 -67.5 24t-25.5 62t27 62.5t67 24.5q41 0 66.5 -23.5t25.5 -61.5zM214 234h-22q-18 42 -18 83q0 31 9.5 56.5t23 44.5t26.5 39t22.5 49t9.5 65q0 48 -22.5 76.5t-62.5 28.5q-31 0 -51 -15t-20 -33q0 -7 10 -7q33 0 53 -17 t20 -48t-23.5 -51.5t-60.5 -20.5q-34 0 -56 23t-22 56q0 59 51.5 100t146.5 41t145 -39.5t50 -109.5q0 -41 -16 -73.5t-40 -51.5t-52 -37.5t-52 -33.5t-40 -37.5t-16 -50.5q0 -19 7 -37z" unicode="?" horiz-adv-x="457" glyph-name="question"/>
<glyph d="M776 72h32q-4 -6 -11 -15t-35 -33t-62 -42.5t-91.5 -33.5t-122.5 -15q-197 0 -314 107t-117 275q0 169 119 277t317 108q168 0 271.5 -98t103.5 -245q0 -119 -63.5 -190t-153.5 -71q-42 0 -71.5 18.5t-39.5 53.5q-28 -39 -59 -56q-34 -18 -75 -18q-56 0 -92.5 29 t-36.5 78q0 44 27 69.5t65 36l76 21t65 37.5t27 73q0 38 -22 58.5t-62 20.5q-33 0 -55 -12.5t-22 -27.5q0 -6 10 -6q26 0 44 -15.5t18 -41.5q0 -29 -21.5 -47.5t-54.5 -18.5q-31 0 -51 19.5t-20 49.5q0 51 48.5 86.5t133.5 35.5q91 0 140 -41t49 -117v-202q0 -39 38 -39 q50 0 92 60t42 157q0 136 -97.5 228.5t-253.5 92.5q-152 0 -232 -102.5t-80 -259.5q0 -156 81 -256.5t234 -100.5q59 0 109.5 11.5t80.5 28t52 33.5t31 28zM529 211v147q-12 -12 -45.5 -34.5t-50 -47t-16.5 -65.5q0 -32 15.5 -48.5t39.5 -16.5q26 0 41.5 17.5t15.5 47.5z " unicode="@" horiz-adv-x="921" glyph-name="at"/>
<glyph d="M800 0h-335v19h71l-96 253h-226l-58 -158q-15 -34 -3 -65.5t53 -31.5h18v-17h-209v17h14q66 0 104 103l217 580h122l262 -681h66v-19zM431 293l-104 280l-105 -280h209z" unicode="A" horiz-adv-x="815" glyph-name="A"/>
<glyph d="M368 0h-345v19h68v661h-68v20h349q126 0 193 -46.5t67 -128.5q0 -66 -46.5 -109.5t-122.5 -60.5q87 -11 141.5 -52.5t54.5 -115.5q0 -88 -78 -137.5t-213 -49.5zM273 19h70q67 0 98.5 44.5t31.5 118.5q0 71 -29.5 113.5t-93.5 42.5h-77v-319zM273 360h55q116 0 116 158 q0 73 -28 117.5t-87 44.5h-56v-320z" unicode="B" horiz-adv-x="698" glyph-name="B"/>
<glyph d="M604 182h22q-10 -88 -70.5 -140.5t-167.5 -52.5q-163 0 -255.5 100t-92.5 257q0 161 100 262.5t260 101.5q47 0 100 -16.5t69 -16.5q27 0 27 33h19v-237h-21q-13 101 -54 156.5t-124 55.5q-89 0 -133 -86.5t-44 -243.5q0 -148 52.5 -235.5t146.5 -87.5q66 0 111.5 39 t54.5 111z" unicode="C" horiz-adv-x="669" glyph-name="C"/>
<glyph d="M356 0h-333v19h68v661h-68v20h333q177 0 280.5 -95t103.5 -251q0 -154 -110 -254t-274 -100zM275 19h70q100 0 148 87t48 242q0 150 -50.5 241t-145.5 91h-70v-661z" unicode="D" horiz-adv-x="780" glyph-name="D"/>
<glyph d="M588 0h-565v19h68v661h-68v20h556v-203h-20q-13 93 -54.5 137.5t-123.5 44.5h-108v-320h47q62 -1 89.5 27t36.5 92h19v-261h-19q-8 64 -36.5 92t-89.5 28h-47v-317h119q84 0 122 39.5t55 141.5h19v-201z" unicode="E" horiz-adv-x="648" glyph-name="E"/>
<glyph d="M349 0h-326v19h68v661h-68v20h555v-203h-20q-13 93 -54.5 137.5t-123.5 44.5h-107v-325h52q62 0 90 27.5t36 91.5h19v-261h-19q-8 64 -36.5 92t-89.5 28h-52v-312h76v-20z" unicode="F" horiz-adv-x="624" glyph-name="F"/>
<glyph d="M650 -17h-20v23q0 33 -8.5 45t-27.5 12q-17 0 -39 -11.5t-41.5 -25t-55 -25t-76.5 -11.5q-158 0 -250.5 100.5t-92.5 255.5q0 160 103 262t264 102q50 0 104.5 -16.5t72.5 -16.5q27 0 27 33h19v-237h-21q-13 101 -56 157t-130 56q-185 0 -185 -340q0 -152 37 -243.5 t110 -91.5q104 0 104 131v138h-85v19h309v-19h-62v-297z" unicode="G" horiz-adv-x="737" glyph-name="G"/>
<glyph d="M776 0h-323v19h67v317h-240v-317h67v-19h-324v19h68v661h-68v20h324v-20h-67v-321h240v321h-67v20h323v-20h-67v-661h67v-19z" unicode="H" horiz-adv-x="800" glyph-name="H"/>
<glyph d="M348 0h-325v19h68v661h-68v20h325v-20h-68v-661h68v-19z" unicode="I" horiz-adv-x="371" glyph-name="I"/>
<glyph d="M441 680h-67v-431q0 -114 -53.5 -186t-150.5 -72q-69 0 -106 35.5t-37 91.5q0 39 25.5 65t63.5 26t60 -20.5t22 -54.5t-21.5 -54t-53.5 -20q-2 0 -4 0.5t-3 0.5q-12 0 -12 -10q0 -16 16.5 -28.5t47.5 -12.5q40 0 65.5 26.5t25.5 71.5q0 47 -18.5 89t-37 94t-18.5 123v266 h-74v20h330v-20z" unicode="J" horiz-adv-x="460" glyph-name="J"/>
<glyph d="M743 0h-334v19h59l-140 314l-48 -53v-261h67v-19h-324v19h68v661h-68v20h324v-20h-67v-370l242 274q32 35 29 67t-41 32h-17v16h214v-17h-11q-56 0 -153 -107l-73 -82l208 -474h65v-19z" unicode="K" horiz-adv-x="760" glyph-name="K"/>
<glyph d="M583 0h-560v19h68v661h-68v20h322v-20h-72v-660h114q82 0 121 46t56 152h19v-218z" unicode="L" horiz-adv-x="629" glyph-name="L"/>
<glyph d="M831 0h-316v19h67v572q-20 -72 -76.5 -276t-86.5 -315h-120l-178 596v-462q0 -58 17.5 -86.5t45.5 -28.5h11v-19h-172v19h11q28 0 45.5 28.5t17.5 86.5v546h-67v20h254l154 -538l148 538h245v-20h-67v-661h67v-19z" unicode="M" horiz-adv-x="861" glyph-name="M"/>
<glyph d="M637 0h-171l-345 604v-470q0 -58 17.5 -86.5t45.5 -28.5h11v-19h-172v19h11q28 0 45.5 28.5t17.5 86.5v546h-67v20h251l332 -595v461q0 58 -17.5 86.5t-45.5 28.5h-11v19h172v-19h-11q-28 0 -45.5 -28.5t-17.5 -86.5v-566z" unicode="N" horiz-adv-x="729" glyph-name="N"/>
<glyph d="M767 354q0 -157 -101.5 -261t-262.5 -104q-174 0 -268.5 99t-94.5 258q0 157 101 260.5t262 103.5q174 0 269 -98.5t95 -257.5zM403 10q50 0 83.5 24.5t50.5 73.5t23.5 105t6.5 135q0 75 -7.5 132.5t-25 106.5t-51 75.5t-80.5 26.5q-50 0 -83.5 -24.5t-50.5 -73.5 t-23.5 -105t-6.5 -134q0 -342 164 -342z" unicode="O" horiz-adv-x="807" glyph-name="O"/>
<glyph d="M344 0h-321v19h68v661h-68v20h354q132 0 204 -47t72 -137t-80.5 -140.5t-209.5 -50.5h-90v-306h71v-19zM273 346h68q67 0 97 46t30 121q0 73 -30 119.5t-93 46.5h-72v-333z" unicode="P" horiz-adv-x="688" glyph-name="P"/>
<glyph d="M681 -48v35h19v-36q0 -47 -29 -77.5t-85 -30.5q-121 0 -121 142v13q-40 -4 -62 -4q-174 0 -268.5 98t-94.5 257q0 157 101 259t262 102q174 0 269 -97t95 -256q0 -96 -40 -174.5t-110 -125.5q6 -26 6 -58q0 -46 6.5 -64.5t23.5 -18.5q28 0 28 36zM387 14v18q0 49 28 82.5 t86 33.5q23 0 36 -15q30 76 30 218q0 75 -7.5 132.5t-25 105.5t-51 74t-80.5 26q-50 0 -83.5 -24t-50.5 -72.5t-23.5 -104t-6.5 -133.5q0 -326 148 -341zM407 30v-16q31 0 57 12q-3 42 -29 42q-28 0 -28 -38z" unicode="Q" horiz-adv-x="807" glyph-name="Q"/>
<glyph d="M684 106v33h19v-36q0 -47 -33.5 -80.5t-91.5 -33.5q-64 0 -96.5 40.5t-32.5 113.5q0 46 -4 76t-16.5 56.5t-38 39t-65.5 12.5h-52v-308h71v-19h-321v19h68v661h-68v20h358q133 0 204.5 -46.5t71.5 -136.5q0 -69 -54.5 -116t-144.5 -64q73 -11 120.5 -59.5t47.5 -129.5 q0 -45 6.5 -62t23.5 -17q28 0 28 37zM273 348h72q67 0 97 45.5t30 120.5q0 73 -30 119t-93 46h-76v-331z" unicode="R" horiz-adv-x="727" glyph-name="R"/>
<glyph d="M562 473h-21q-11 98 -59.5 155t-137.5 57q-65 0 -99 -32.5t-34 -83.5q0 -44 28 -74t69.5 -44.5t90 -33t90 -39t69.5 -64t28 -106.5q0 -95 -75.5 -157t-215.5 -62q-48 0 -88.5 12.5t-69.5 25.5t-47 13q-28 0 -28 -37h-19v240h20q12 -102 67.5 -166t150.5 -64 q70 0 105.5 34.5t35.5 89.5q0 36 -20.5 62.5t-53 43.5t-72 31.5t-79 32.5t-72 40.5t-53 61t-20.5 89.5q0 93 71.5 152.5t208.5 59.5q51 0 109 -18t75 -18q27 0 27 36h19v-237z" unicode="S" horiz-adv-x="629" glyph-name="S"/>
<glyph d="M524 0h-325v19h68v663h-26q-81 0 -120.5 -48t-53.5 -144h-20v248h18q-1 -38 29 -38h535q30 0 29 38h18v-248h-20q-14 96 -53.5 144t-120.5 48h-26v-663h68v-19z" unicode="T" horiz-adv-x="723" glyph-name="T"/>
<glyph d="M614 251v315q0 58 -17.5 86.5t-45.5 28.5h-11v19h172v-19h-11q-28 0 -45.5 -28.5t-17.5 -86.5v-316q0 -114 -80 -186.5t-198 -72.5q-120 0 -197 71t-77 179v439h-68v20h324v-20h-67v-434q0 -77 48 -124.5t122 -47.5q75 0 122 46.5t47 130.5z" unicode="U" horiz-adv-x="730" glyph-name="U"/>
<glyph d="M447 0h-127l-239 680h-66v20h338v-20h-71l183 -550l153 455q15 34 3 65.5t-53 31.5h-18v18h209v-18h-14q-66 0 -104 -103z" unicode="V" horiz-adv-x="774" glyph-name="V"/>
<glyph d="M771 0h-139l-114 461l-126 -461h-138l-173 680h-66v20h322v-20h-67l134 -544l103 372l-40 172h-62v20h316v-20h-67l128 -545l111 449q10 40 -2 69t-53 29h-18v18h209v-18h-14q-72 0 -98 -104z" unicode="W" horiz-adv-x="1044" glyph-name="W"/>
<glyph d="M739 0h-336v19h63l-151 261l-120 -166q-29 -38 -25.5 -67t44.5 -29h16v-18h-213v18h10q70 0 147 108l129 176l-223 378h-61v20h335v-20h-62l146 -253l116 159q29 38 25.5 67t-44.5 29h-16v18h213v-18h-10q-70 0 -147 -108l-124 -169l227 -386h61v-19z" unicode="X" horiz-adv-x="756" glyph-name="X"/>
<glyph d="M547 0h-323v19h67v310l-215 351h-61v20h336v-20h-63l183 -299l128 205q27 39 22 67.5t-46 28.5h-16v18h213v-18h-10q-70 0 -142 -108l-140 -220v-335h67v-19z" unicode="Y" horiz-adv-x="787" glyph-name="Y"/>
<glyph d="M634 0h-597l380 680h-157q-82 0 -121 -45.5t-56 -149.5h-19v215h572l-381 -680h184q82 0 120.5 45t55.5 150h19v-215z" unicode="Z" horiz-adv-x="695" glyph-name="Z"/>
<glyph d="M377 -94h-307v844h307v-20h-137v-803h137v-21z" unicode="[" horiz-adv-x="397" glyph-name="bracketleft"/>
<glyph d="M336 -25h-34q-44 124 -85.5 226.5t-58.5 147.5q-16 45 -49.5 146.5t-78.5 227.5h34q45 -124 83.5 -224.5t56.5 -149.5q25 -68 60.5 -171t71.5 -203z" unicode="\" horiz-adv-x="367" glyph-name="backslash"/>
<glyph d="M327 -94h-307v21h137v803h-137v20h307v-844z" unicode="]" horiz-adv-x="397" glyph-name="bracketright"/>
<glyph d="M485 27h-64l-128 331l-128 -331h-63l159 399q9 23 32 23t32 -23z" unicode="^" glyph-name="asciicircum"/>
<glyph d="M502 -113h-504v21h504v-21z" unicode="_" horiz-adv-x="500" glyph-name="underscore"/>
<glyph d="M411 575v-22q-61 21 -151 33t-116 18q-62 14 -62 69q0 32 19.5 50t48.5 18q28 0 53 -15q30 -18 63 -49.5t67 -58.5t78 -43z" unicode="`" horiz-adv-x="500" glyph-name="grave"/>
<glyph d="M313 115v160q-14 -14 -51 -38t-55 -50t-18 -71q0 -34 17.5 -53t42.5 -19q29 0 46.5 19.5t17.5 51.5zM527 97h18q0 -43 -27.5 -75t-82.5 -32q-94 0 -114 81q-55 -82 -146 -82q-59 0 -98.5 31t-39.5 84q0 48 29 75t70.5 38.5l83 23t70.5 40.5t29 79q0 85 -93 85 q-35 0 -59 -13t-24 -29q0 -7 10 -7q29 0 49 -16.5t20 -46.5t-24 -50t-60 -20q-33 0 -55 21.5t-22 53.5q0 55 53 92.5t146 37.5q99 0 152 -42.5t53 -123.5v-206q0 -44 28 -44q15 0 24.5 13t9.5 32z" unicode="a" horiz-adv-x="556" glyph-name="a"/>
<glyph d="M221 336v-231q0 -46 19.5 -68t49.5 -22q46 0 69.5 58.5t23.5 154.5q0 93 -23 145.5t-70 52.5q-31 0 -50 -22t-19 -68zM62 -28h-21l13 39q17 56 17 95v605h-61v18h211v-316q7 10 18.5 20.5t41.5 23t66 12.5q90 0 142.5 -62t52.5 -164q0 -111 -68.5 -181t-179.5 -70 q-43 0 -76 14.5t-57 29t-44 14.5q-18 0 -30 -17t-25 -61z" unicode="b" horiz-adv-x="589" glyph-name="b"/>
<glyph d="M448 138h21q-7 -65 -57.5 -106.5t-136.5 -41.5q-105 0 -166.5 65t-61.5 173q0 105 67 173t175 68q87 0 134.5 -42t47.5 -101q0 -39 -23.5 -63.5t-61.5 -24.5q-35 0 -57.5 21.5t-22.5 53.5q0 35 25.5 56.5t60.5 21.5q11 0 11 8q0 18 -21 32t-56 14q-57 0 -89 -53t-32 -159 q0 -92 32.5 -143t98.5 -51q44 0 74.5 26.5t37.5 72.5z" unicode="c" horiz-adv-x="510" glyph-name="c"/>
<glyph d="M369 130v209q0 45 -19.5 67t-49.5 22q-94 0 -94 -199q0 -189 92 -189q32 0 51.5 22t19.5 68zM582 97h19q0 -43 -27.5 -75t-83.5 -32q-92 0 -112 77q-48 -78 -136 -78q-89 0 -142 65t-53 170q0 106 55 176t143 70q75 0 124 -54v294h-68v19h219v-633q0 -44 29 -44 q15 0 24 13t9 32z" unicode="d" horiz-adv-x="612" glyph-name="d"/>
<glyph d="M468 140h23q-8 -66 -60 -108t-142 -42q-112 0 -177 65t-65 171t66.5 174.5t174.5 68.5q100 0 155.5 -59.5t54.5 -158.5h-294v-15q0 -197 141 -197q50 0 83 27t40 74zM204 270h142q0 94 -15 136t-48 42t-54.5 -46t-24.5 -132z" unicode="e" horiz-adv-x="537" glyph-name="e"/>
<glyph d="M305 0h-290v19h66v420h-66v19h66v111q0 81 46.5 129t120.5 48q63 0 98 -32.5t35 -83.5q0 -38 -22 -61.5t-57 -23.5q-32 0 -52.5 18.5t-20.5 48.5q0 32 22 50.5t54 18.5q11 0 11 10q0 14 -15.5 25.5t-43.5 11.5q-37 0 -61 -28.5t-24 -83.5q0 -25 4.5 -50.5t9 -40.5 t12.5 -37t10 -30h119v-20h-112q24 -65 24 -145v-274h66v-19z" unicode="f" horiz-adv-x="368" glyph-name="f"/>
<glyph d="M264 189q33 0 46 31t13 97q0 129 -56 129q-33 0 -46.5 -31t-13.5 -96q0 -130 57 -130zM389 442q83 -37 83 -122q0 -66 -59 -108.5t-151 -42.5q-24 0 -46 3t-33 3q-57 0 -57 -34q0 -21 24.5 -26.5t105.5 -8.5q10 0 15 -0.5t13.5 -1t16.5 -0.5q104 -3 157.5 -33.5 t53.5 -99.5q0 -76 -70 -120t-194 -44q-105 0 -155.5 32t-50.5 87q0 39 28 61.5t69 30.5q-32 8 -52.5 29.5t-20.5 52.5q0 34 26 59t64 32q-43 13 -71 45t-28 80q0 71 57 111t151 40q22 0 53.5 -3.5t48.5 -3.5q25 0 39.5 6t14.5 15q0 7 -13 7q-29 0 -48.5 16.5t-19.5 47.5 q0 28 22 47t56 19q38 0 61 -19t23 -51q0 -38 -31 -66.5t-82 -39.5zM384 -83q0 90 -209 90q-32 0 -51.5 -21t-19.5 -57q0 -45 36 -73.5t108 -28.5q66 0 101 24.5t35 65.5z" unicode="g" horiz-adv-x="532" glyph-name="g"/>
<glyph d="M579 0h-259v19h46v338q0 30 -16.5 46t-42.5 16q-30 0 -52.5 -26.5t-22.5 -65.5v-308h49v-19h-261v19h58v691h-58v19h212v-336q53 71 145 71q71 0 107.5 -43.5t36.5 -123.5v-278h58v-19z" unicode="h" horiz-adv-x="596" glyph-name="h"/>
<glyph d="M304 0h-272v19h60v420h-60v19h214v-439h58v-19zM258 650q0 -38 -26.5 -62t-65.5 -24q-41 0 -66.5 23t-25.5 61q0 37 27 61t66 24q41 0 66 -23t25 -60z" unicode="i" horiz-adv-x="321" glyph-name="i"/>
<glyph d="M98 188v251h-60v19h214v-472q0 -83 -46.5 -138.5t-121.5 -55.5q-54 0 -84 27.5t-30 72.5q0 31 21 52.5t52 21.5q32 0 49.5 -16.5t17.5 -45.5q0 -27 -18 -43.5t-45 -16.5q-10 0 -10 -8q0 -27 46 -27q34 0 57 23t23 67q0 48 -32.5 133.5t-32.5 155.5zM265 650 q0 -38 -26.5 -62t-65.5 -24q-41 0 -66.5 23t-25.5 61q0 37 27 61t67 24t65 -23t25 -60z" unicode="j" horiz-adv-x="315" glyph-name="j"/>
<glyph d="M587 0h-266v19h47l-99 198l-33 -34v-164h46v-19h-259v19h59v691h-59v19h213v-517l150 150q31 31 31 55q0 25 -56 25v16h207v-17h-11q-56 0 -147 -89l-25 -25l152 -308h50v-19z" unicode="k" horiz-adv-x="600" glyph-name="k"/>
<glyph d="M299 0h-276v19h61v691h-61v19h218v-710h58v-19z" unicode="l" horiz-adv-x="323" glyph-name="l"/>
<glyph d="M858 0h-256v19h45v342q0 31 -15 46.5t-39 15.5q-30 0 -51 -24t-21 -63v-317h49v-19h-247v19h45v342q0 62 -55 62q-29 0 -50 -26.5t-21 -66.5v-311h48v-19h-258v19h58v421h-58v18h210v-63q49 74 141 74q100 0 129 -81q7 14 20 29t49 33.5t81 18.5q138 0 138 -167v-283h58 v-19z" unicode="m" horiz-adv-x="875" glyph-name="m"/>
<glyph d="M591 0h-259v19h46v342q0 31 -16.5 46.5t-42.5 15.5q-30 0 -52.5 -28t-22.5 -68v-308h49v-19h-261v19h58v421h-58v18h212v-65q57 76 145 76q71 0 107.5 -43.5t36.5 -123.5v-283h58v-19z" unicode="n" horiz-adv-x="608" glyph-name="n"/>
<glyph d="M295 12q91 0 91 216q0 218 -87 218q-93 0 -93 -214q0 -220 89 -220zM545 233q0 -104 -72.5 -173t-177.5 -69q-109 0 -178.5 66t-69.5 170t73 172t179 68q108 0 177 -65t69 -169z" unicode="o" horiz-adv-x="592" glyph-name="o"/>
<glyph d="M232 336v-206q0 -45 19 -66.5t49 -21.5q94 0 94 193q0 192 -93 192q-31 0 -50 -22.5t-19 -68.5zM290 -189h-273v18h60v610h-60v19h215v-45q41 56 126 56q90 0 142.5 -62.5t52.5 -166.5q0 -106 -54.5 -173t-143.5 -67q-35 0 -64.5 12t-40.5 22t-18 20v-225h58v-18z" unicode="p" horiz-adv-x="600" glyph-name="p"/>
<glyph d="M369 133v222q0 46 -19.5 67.5t-49.5 21.5q-47 0 -70.5 -56t-23.5 -150q0 -195 93 -195q31 0 50.5 22t19.5 68zM581 -189h-274v18h62v227q-46 -56 -122 -56q-92 0 -146 62.5t-54 165.5q0 110 67 174.5t180 64.5q42 0 75.5 -14.5t58 -29t44.5 -14.5q17 0 29.5 17t26.5 61 h21l-13 -39q-18 -59 -18 -95v-525h63v-17z" unicode="q" horiz-adv-x="582" glyph-name="q"/>
<glyph d="M311 0h-279v19h59v421h-59v18h212v-112q0 1 7.5 14.5t14.5 24t23 27t33.5 27t45.5 18.5t61 8v-181h-19q-8 102 -77 102q-37 0 -63 -33.5t-26 -95.5v-238h67v-19z" unicode="r" horiz-adv-x="459" glyph-name="r"/>
<glyph d="M434 296h-17q-9 70 -46 109.5t-100 39.5q-40 0 -62 -18.5t-22 -48.5q0 -33 27 -53t65.5 -31t76.5 -25.5t65 -46.5t27 -82q0 -66 -52.5 -108t-156.5 -42q-52 0 -100 16t-59 16q-20 0 -20 -27h-18v177h16q11 -75 52.5 -118t109.5 -43q41 0 64 19t23 51t-26.5 53.5t-64.5 34 t-76.5 27t-65 45.5t-26.5 77q0 66 50 108t151 42q47 0 93 -14t55 -14q19 0 19 25h18v-169z" unicode="s" horiz-adv-x="490" glyph-name="s"/>
<glyph d="M349 121h21q0 -56 -41.5 -93.5t-106.5 -37.5q-79 0 -118.5 40t-39.5 110v299h-49v19h49v83l154 51v-134h139v-19h-139v-302q0 -86 67 -86q29 0 46.5 20.5t17.5 49.5z" unicode="t" horiz-adv-x="390" glyph-name="t"/>
<glyph d="M574 97h18q0 -42 -29.5 -74.5t-85.5 -32.5q-93 0 -113 78q0 -1 -4.5 -7t-8 -10.5t-11 -12.5t-15 -14t-19 -13t-24 -11.5t-29.5 -7.5t-35 -3q-72 0 -108 43.5t-36 123.5v283h-59v19h214v-362q0 -30 15.5 -45.5t40.5 -15.5q30 0 52 27t22 67v310h-52v19h205v-362 q0 -44 29 -44q15 0 24 13t9 32z" unicode="u" horiz-adv-x="604" glyph-name="u"/>
<glyph d="M340 0h-114l-159 439h-59v19h282v-20h-61l122 -347l91 261q14 34 3 61.5t-48 27.5h-16v17h187v-17h-13q-59 0 -91 -94z" unicode="v" horiz-adv-x="577" glyph-name="v"/>
<glyph d="M604 0h-111l-86 294l-96 -294h-113l-131 439h-59v19h268v-20h-50l95 -338l76 230l-34 109h-48v19h258v-20h-55l95 -332l70 246q13 37 1 63t-50 26h-16v17h187v-17h-13q-60 0 -87 -94z" unicode="w" horiz-adv-x="814" glyph-name="w"/>
<glyph d="M576 0h-287v19h65l-110 159l-67 -78q-25 -27 -20 -54t43 -27h21v-19h-202v19h14q45 0 120 88l78 89l-166 243h-50v19h288v-19h-64l105 -154l63 73q25 27 20 54t-43 27h-21v19h202v-19h-14q-45 0 -120 -88l-74 -84l171 -248h48v-19z" unicode="x" horiz-adv-x="591" glyph-name="x"/>
<glyph d="M277 -59l14 37l-217 461h-59v19h282v-19h-60l123 -285l78 198q16 35 5.5 62t-48.5 27h-16v17h187v-17h-13q-57 0 -93 -94l-163 -411q-29 -73 -61 -106t-77 -33q-53 0 -82 29t-29 75q0 32 21 53.5t52 21.5q32 0 49.5 -17t17.5 -45t-18 -44.5t-45 -16.5q-12 0 -15 -5 q2 -32 50 -32q37 0 64.5 30t52.5 95z" unicode="y" horiz-adv-x="581" glyph-name="y"/>
<glyph d="M475 0h-438l259 438h-92q-65 0 -95.5 -34.5t-40.5 -97.5h-16v152h425l-259 -438h105q65 0 95.5 35t40.5 100h16v-155z" unicode="z" horiz-adv-x="516" glyph-name="z"/>
<glyph d="M377 -83v-23q-173 0 -253 48.5t-80 124.5q0 38 18.5 70t40.5 50.5t40.5 40.5t18.5 42q0 46 -76 46v23q76 0 76 46q0 20 -18.5 42t-40.5 40t-40.5 50.5t-18.5 70.5q0 76 80 124.5t253 48.5v-23q-86 0 -123 -29t-37 -84q0 -48 41 -107t41 -96q0 -10 -2.5 -19t-6 -16 t-9.5 -14t-11.5 -11.5t-13 -9.5t-13 -8t-13 -6t-11 -4.5t-9.5 -3.5l-6 -2l6 -2q7 -2 11.5 -4t13 -6t15 -8t14.5 -9.5t13.5 -12.5t11 -14.5t8 -17.5t2.5 -21q0 -37 -41 -96t-41 -107q0 -55 37 -84t123 -29z" unicode="{" horiz-adv-x="397" glyph-name="braceleft"/>
<glyph d="M155 -149h-42v880h42v-880z" unicode="|" horiz-adv-x="268" glyph-name="bar"/>
<glyph d="M20 -106v23q160 0 160 113q0 48 -40.5 107t-40.5 96q0 11 2.5 21t8 17.5t11 14.5t13.5 12.5t14.5 9.5t14.5 8t12.5 6t10.5 4l7 2l-7 2q-8 3 -13.5 5t-15 7t-16.5 10t-15.5 12.5t-14 15.5t-9 19t-3.5 23q0 37 40.5 96t40.5 107q0 113 -160 113v23q173 0 253 -48.5 t80 -124.5q0 -38 -18.5 -70.5t-40.5 -50.5t-40.5 -40t-18.5 -42q0 -46 76 -46v-23q-76 0 -76 -46q0 -20 18.5 -42t40.5 -40.5t40.5 -50.5t18.5 -70q0 -76 -80 -124.5t-253 -48.5z" unicode="}" horiz-adv-x="397" glyph-name="braceright"/>
<glyph d="M512 313h24q-16 -72 -58 -113t-110 -41q-44 0 -84 19.5t-72 39t-58 19.5q-61 0 -81 -62h-24q36 156 167 156q42 0 77.5 -20t68 -40t68.5 -20q60 0 82 62z" unicode="~" glyph-name="asciitilde"/>
<glyph d="M140 266h21q0 -58 13 -112t28.5 -87.5t28.5 -78t13 -87.5q0 -42 -25 -69.5t-68 -27.5t-68 27.5t-25 69.5q0 54 20.5 109.5t41 119t20.5 136.5zM242 420q0 -39 -25.5 -62.5t-66.5 -23.5t-67.5 24t-26.5 63q0 38 26 62t67 24q40 0 66.5 -24.5t26.5 -62.5z" unicode="¡" horiz-adv-x="297" glyph-name="exclamdown"/>
<glyph d="M300 -101v91q-108 1 -176.5 64.5t-68.5 173.5q0 101 67.5 169t177.5 72v97h23v-97q90 -3 137 -45t47 -99q0 -38 -22.5 -61.5t-57.5 -23.5q-34 0 -56 20.5t-22 51.5q0 35 22.5 55.5t56.5 20.5q11 0 11 8q0 17 -23.5 32t-62.5 15q-18 0 -30 -4v-395q15 -4 35 -4 q48 0 82.5 27t40.5 73h21q-6 -61 -53.5 -102.5t-125.5 -46.5v-92h-23zM213 233q0 -144 87 -182v380q-44 -22 -65.5 -76.5t-21.5 -121.5z" unicode="¢" glyph-name="cent"/>
<glyph d="M498 -19h-37q-60 0 -107.5 18.5t-76 44.5t-52.5 52.5t-49 45t-52 18.5q-18 0 -28.5 -6.5t-10.5 -16.5q0 -7 10 -7q26 0 45 -18.5t19 -48.5q0 -29 -22 -48t-54 -19q-31 0 -51 21t-20 53q0 48 34.5 80t85.5 32q61 0 61 56q0 19 -8 39h-126v22h114q-12 16 -40 48t-40 49.5 t-24 49.5t-12 68q0 88 70.5 138.5t183.5 50.5q50 0 103.5 -17.5t68.5 -17.5q26 0 26 35h18v-233h-19q-7 95 -53.5 151t-127.5 56q-58 0 -91 -34.5t-33 -87.5q0 -51 22 -96.5t48.5 -86.5t33.5 -73h173v-22h-168v-9q0 -38 -27.5 -62.5t-71.5 -34.5q31 -6 65.5 -20.5t69 -24 t81.5 -9.5q40 1 71.5 23.5t48.5 59.5h19z" unicode="£" glyph-name="sterling"/>
<glyph d="M446 0h-316v19h67v263h-170v22h170v92h-170v21h167l-134 264h-50v19h298v-19h-56l110 -248l75 154q22 41 14 68.5t-49 27.5h-16v17h193v-17h-3q-38 0 -64.5 -25t-53.5 -83l-77 -158h179v-21h-181v-92h181v-22h-181v-263h67v-19z" unicode="¥" glyph-name="yen"/>
<glyph d="M164 330h-56v400h56v-400zM164 -149h-56v400h56v-400z" unicode="¦" horiz-adv-x="270" glyph-name="brokenbar"/>
<glyph d="M102 -154h-17v196h17q23 -171 155 -171q45 0 70.5 24.5t25.5 60.5q0 31 -18 54.5t-46.5 39.5t-62.5 30.5t-68.5 32.5t-63 40.5t-46.5 60t-18 85.5q0 109 83 158q-28 36 -28 82q0 73 53.5 118.5t163.5 45.5q51 0 99 -13.5t61 -13.5q22 0 22 29h18v-196h-18 q-23 171 -155 171q-45 0 -70 -24.5t-25 -60.5t24 -62.5t59.5 -42t77.5 -36t77.5 -42t59.5 -63t24 -97.5q0 -108 -84 -158q29 -35 29 -82q0 -73 -53 -118.5t-163 -45.5q-51 0 -99.5 13.5t-60.5 13.5q-23 0 -23 -29zM123 443q-20 -20 -20 -55q0 -41 27.5 -73.5t71.5 -56 t91 -44t95 -48.5t74 -59q21 23 21 56q0 50 -43 89.5t-98.5 62t-121 57t-97.5 71.5z" unicode="§" glyph-name="section"/>
<glyph d="M230 650q0 -38 -26 -62t-64 -24q-40 0 -64.5 23t-24.5 61q0 37 26.5 61t64.5 24q39 0 63.5 -23t24.5 -60zM449 650q0 -38 -26.5 -62t-64.5 -24q-40 0 -64.5 23t-24.5 61q0 37 26 61t64 24q40 0 65 -23t25 -60z" unicode="¨" horiz-adv-x="500" glyph-name="dieresis"/>
<glyph d="M844 352q0 -156 -110 -259t-277 -103q-166 0 -275.5 102.5t-109.5 257.5q0 156 109.5 258.5t275.5 102.5q167 0 277 -102t110 -257zM457 13q155 0 240 91.5t85 246.5t-85 246.5t-240 91.5q-154 0 -238.5 -91.5t-84.5 -246.5t84.5 -246.5t238.5 -91.5zM629 270h21 q-7 -60 -54 -97t-128 -37q-99 0 -156.5 59t-57.5 157q0 94 63 156.5t164 62.5q82 0 126 -38.5t44 -94.5q0 -35 -22 -58t-57 -23q-33 0 -53 19.5t-20 49.5q0 33 23 53t55 20q9 0 9 7q0 16 -19 29t-53 13q-54 0 -84 -48t-30 -144q0 -83 31 -129t93 -46q41 0 70 24t35 65z" unicode="©" horiz-adv-x="915" glyph-name="copyright"/>
<glyph d="M319 432v118q-12 -11 -41 -28t-42.5 -36t-13.5 -54q0 -26 13.5 -40.5t33.5 -14.5q23 0 36.5 15t13.5 40zM485 417h18q0 -33 -21.5 -59.5t-65.5 -26.5q-71 0 -91 64q-43 -64 -115 -64q-47 0 -78.5 24.5t-31.5 66.5q0 37 23 58t56 29.5t66 17.5t56 31.5t23 61.5 q0 65 -74 65q-28 0 -46.5 -10t-18.5 -22q0 -6 8 -6q54 0 54 -48q0 -25 -19 -40.5t-48 -15.5q-27 0 -44.5 16.5t-17.5 42.5q0 45 42 74t116 29q80 0 122.5 -34t42.5 -99v-157q0 -30 21 -30q23 0 23 32z" unicode="ª" glyph-name="ordfeminine"/>
<glyph d="M380 51v-30l-308 211q-19 13 -19 30q0 18 19 32l308 210v-29l-232 -212zM563 71v-29l-308 190q-18 12 -18 30q0 19 18 31l308 191v-29l-230 -192z" unicode="«" horiz-adv-x="617" glyph-name="guillemotleft"/>
<glyph d="M516 84h-56v197h-393v56h405q25 0 34.5 -10.5t9.5 -31.5v-211z" unicode="¬" glyph-name="logicalnot"/>
<glyph d="M843 352q0 -156 -110 -259t-277 -103q-166 0 -275.5 102.5t-109.5 257.5q0 156 109.5 258.5t275.5 102.5q167 0 277 -102t110 -257zM456 13q155 0 240 91.5t85 246.5t-85 246.5t-240 91.5q-154 0 -238.5 -91.5t-84.5 -246.5t84.5 -246.5t238.5 -91.5zM669 215v17h19v-19 q0 -32 -23.5 -53.5t-62.5 -21.5q-90 0 -90 96q0 62 -10.5 83t-48.5 21h-30v-175h40v-19h-203v19h38v384h-39v18h224q84 0 131 -28t47 -83q0 -44 -32 -72t-87 -38q97 -14 97 -105q0 -28 2.5 -36.5t12.5 -8.5q15 0 15 21zM423 358h36q41 0 57 23.5t16 71.5q0 93 -67 93h-42 v-188z" unicode="®" horiz-adv-x="914" glyph-name="registered"/>
<glyph d="M435 688v-95q-62 0 -110.5 -2.5t-70.5 -2.5q-25 0 -71.5 2.5t-105.5 2.5v95q59 0 105.5 3t71.5 3q22 0 70.5 -3t110.5 -3z" unicode="¯" horiz-adv-x="500" glyph-name="macron"/>
<glyph d="M384 582q0 -55 -46 -90t-118 -35t-117.5 35t-45.5 90t45.5 90.5t117.5 35.5t118 -35.5t46 -90.5zM220 486q28 0 44 27t16 69q0 43 -16 70t-44 27q-26 0 -41.5 -27t-15.5 -70q0 -42 15.5 -69t41.5 -27z" unicode="°" horiz-adv-x="441" glyph-name="degree"/>
<glyph d="M520 271h-200v-161h-56v161h-197v57h197v163h56v-163h200v-57zM520 6h-453v57h453v-57z" unicode="±" glyph-name="plusminus"/>
<glyph d="M87 553v22q58 21 119.5 78t88.5 73q25 15 53 15q30 0 49 -18t19 -50q0 -55 -62 -69q-26 -7 -116 -18.5t-151 -32.5z" unicode="´" horiz-adv-x="500" glyph-name="acute"/>
<glyph d="M547 0h-24v679h-122v-679h-23v326h-36q-131 0 -205 48t-74 138t76 139t204 49h260v-21h-56v-679zM378 347v332h-10q-119 0 -119 -166t118 -166h11z" unicode="¶" horiz-adv-x="654" glyph-name="paragraph"/>
<glyph d="M333 264q0 -38 -27 -63t-67 -25q-41 0 -66.5 24t-25.5 62q0 39 26.5 63.5t66.5 24.5q42 0 67.5 -24t25.5 -62z" unicode="·" horiz-adv-x="481" glyph-name="periodcentered"/>
<glyph d="M270 0l-74 -65q23 10 60 10q63 0 95 -21t32 -56q0 -38 -40.5 -65t-114.5 -27q-54 0 -80 19.5t-26 46.5q0 17 10.5 27.5t28.5 10.5q16 0 26 -9.5t10 -23.5t-7.5 -21t-16.5 -7q-5 0 -5 -6q0 -18 40 -18q28 0 44 17.5t16 49.5q0 60 -53 60q-14 0 -25.5 -3.5t-15.5 -6.5 l-5 -4h-27l100 92h28z" unicode="¸" horiz-adv-x="500" glyph-name="cedilla"/>
<glyph d="M293 351q71 0 71 168q0 170 -68 170q-73 0 -73 -167q0 -171 70 -171zM493 523q0 -81 -58.5 -135.5t-141.5 -54.5q-88 0 -143.5 52t-55.5 133t58.5 134.5t143.5 53.5q87 0 142 -51t55 -132z" unicode="º" glyph-name="ordmasculine"/>
<glyph d="M237 21v30l231 212l-231 212v29l308 -210q18 -15 18 -32t-18 -30zM53 42v29l231 192l-231 192v29l309 -191q18 -13 18 -31q0 -17 -18 -30z" unicode="»" horiz-adv-x="617" glyph-name="guillemotright"/>
<glyph d="M336 421q0 -38 -27 -62.5t-67 -24.5q-41 0 -66.5 23.5t-25.5 61.5q0 39 27 63.5t67 24.5q41 0 66.5 -24t25.5 -62zM241 267h22q18 -42 18 -83q0 -37 -14 -69t-31 -51.5t-31 -54.5t-14 -79q0 -48 22.5 -76.5t61.5 -28.5q31 0 51 15t20 33q0 7 -10 7q-33 0 -53 17t-20 48 t23.5 51.5t61.5 20.5q34 0 55.5 -22.5t21.5 -56.5q0 -59 -51.5 -100t-145.5 -41q-95 0 -145.5 39.5t-50.5 109.5q0 41 16 73.5t40 51.5t52 37.5t52 33.5t40 37.5t16 50.5q0 20 -7 37z" unicode="¿" horiz-adv-x="457" glyph-name="questiondown"/>
<glyph d="M800 0h-335v19h71l-96 253h-226l-58 -158q-15 -34 -3 -65.5t53 -31.5h18v-17h-209v17h14q66 0 104 103l217 580h122l262 -681h66v-19zM431 293l-104 280l-105 -280h209zM556 766v-22q-61 21 -151 33t-116 18q-62 14 -62 69q0 32 19.5 50t48.5 18q27 0 53 -15 q30 -18 63 -49.5t67 -58.5t78 -43z" unicode="À" horiz-adv-x="815" glyph-name="Agrave"/>
<glyph d="M800 0h-335v19h71l-96 253h-226l-58 -158q-15 -34 -3 -65.5t53 -31.5h18v-17h-209v17h14q66 0 104 103l217 580h122l262 -681h66v-19zM431 293l-104 280l-105 -280h209zM251 744v22q58 21 119.5 78t88.5 73q25 15 53 15q30 0 49 -18t19 -50q0 -55 -62 -69 q-26 -7 -116 -18.5t-151 -32.5z" unicode="Á" horiz-adv-x="815" glyph-name="Aacute"/>
<glyph d="M800 0h-335v19h71l-96 253h-226l-58 -158q-15 -34 -3 -65.5t53 -31.5h18v-17h-209v17h14q66 0 104 103l217 580h122l262 -681h66v-19zM431 293l-104 280l-105 -280h209zM601 740l-191 87l-190 -87l-3 20q35 24 87 84.5t68 75.5q17 16 39 15.5t38 -15.5t68 -76.5t88 -83.5 z" unicode="Â" horiz-adv-x="815" glyph-name="Acircumflex"/>
<glyph d="M800 0h-335v19h71l-96 253h-226l-58 -158q-15 -34 -3 -65.5t53 -31.5h18v-17h-209v17h14q66 0 104 103l217 580h122l262 -681h66v-19zM431 293l-104 280l-105 -280h209zM613 899h18q-13 -69 -48 -109t-92 -40q-38 0 -71 19.5t-60.5 39t-50.5 19.5q-55 0 -72 -62h-18 q30 151 140 151q43 0 93 -40t88 -40q54 0 73 62z" unicode="Ã" horiz-adv-x="815" glyph-name="Atilde"/>
<glyph d="M800 0h-335v19h71l-96 253h-226l-58 -158q-15 -34 -3 -65.5t53 -31.5h18v-17h-209v17h14q66 0 104 103l217 580h122l262 -681h66v-19zM431 293l-104 280l-105 -280h209zM390 837q0 -38 -26 -62t-64 -24q-40 0 -64.5 23t-24.5 61q0 37 26.5 61t64.5 24q39 0 63.5 -23 t24.5 -60zM609 837q0 -38 -26.5 -62t-64.5 -24q-40 0 -64.5 23t-24.5 61q0 37 26 61t64 24q40 0 65 -23t25 -60z" unicode="Ä" horiz-adv-x="815" glyph-name="Adieresis"/>
<glyph d="M800 0h-335v19h71l-96 253h-226l-58 -158q-15 -34 -3 -65.5t53 -31.5h18v-17h-209v17h14q66 0 104 103l217 580h122l262 -681h66v-19zM431 293l-104 280l-105 -280h209zM409 762q52 0 52 93q0 94 -50 94q-51 0 -51 -93q0 -94 49 -94zM546 857q0 -52 -39 -84t-98 -32 q-60 0 -97.5 31t-37.5 82q0 52 39.5 84t97.5 32q60 0 97.5 -31t37.5 -82z" unicode="Å" horiz-adv-x="815" glyph-name="Aring"/>
<glyph d="M528 361v293l-189 -293h189zM1026 0h-559v19h61v319h-203l-147 -225q-27 -39 -22 -67.5t46 -28.5h16v-17h-213v17h10q69 0 139 108l362 556h-71v19h572v-203h-20q-13 93 -54.5 137.5t-123.5 44.5h-109v-319h47q62 -1 90.5 27t36.5 92h19v-261h-19q-8 64 -36.5 92 t-90.5 28h-47v-318h120q84 0 122 39.5t55 141.5h19v-201z" unicode="Æ" horiz-adv-x="1086" glyph-name="AE"/>
<glyph d="M604 182h22q-10 -88 -70.5 -140.5t-167.5 -52.5q-13 0 -19 1l-62 -54q27 9 60 9q63 0 95 -21t32 -56q0 -38 -40.5 -65t-114.5 -27q-54 0 -80 19.5t-26 46.5q0 17 10.5 27.5t28.5 10.5q16 0 26 -9.5t10 -23.5t-7.5 -21t-16.5 -7q-5 0 -5 -6q0 -18 40 -18q28 0 44 17.5 t16 49.5q0 60 -53 60q-14 0 -25.5 -3.5t-16.5 -6.5l-4 -4h-27l90 83q-143 14 -223 112t-80 243q0 161 100 262.5t260 101.5q47 0 100 -16.5t69 -16.5q27 0 27 33h19v-237h-21q-13 101 -54 156.5t-124 55.5q-89 0 -133 -86.5t-44 -243.5q0 -148 52.5 -235.5t146.5 -87.5 q66 0 111.5 39t54.5 111z" unicode="Ç" horiz-adv-x="669" glyph-name="Ccedilla"/>
<glyph d="M588 0h-565v19h68v661h-68v20h556v-203h-20q-13 93 -54.5 137.5t-123.5 44.5h-108v-320h47q62 -1 89.5 27t36.5 92h19v-261h-19q-8 64 -36.5 92t-89.5 28h-47v-317h119q84 0 122 39.5t55 141.5h19v-201zM481 766v-22q-61 21 -151 33t-116 18q-62 14 -62 69q0 32 19.5 50 t48.5 18q28 0 53 -15q30 -18 63 -49.5t67 -58.5t78 -43z" unicode="È" horiz-adv-x="648" glyph-name="Egrave"/>
<glyph d="M588 0h-565v19h68v661h-68v20h556v-203h-20q-13 93 -54.5 137.5t-123.5 44.5h-108v-320h47q62 -1 89.5 27t36.5 92h19v-261h-19q-8 64 -36.5 92t-89.5 28h-47v-317h119q84 0 122 39.5t55 141.5h19v-201zM164 744v22q58 21 119.5 78t88.5 73q26 15 53 15q30 0 49 -18 t19 -50q0 -55 -62 -69q-26 -7 -116 -18.5t-151 -32.5z" unicode="É" horiz-adv-x="648" glyph-name="Eacute"/>
<glyph d="M588 0h-565v19h68v661h-68v20h556v-203h-20q-13 93 -54.5 137.5t-123.5 44.5h-108v-320h47q62 -1 89.5 27t36.5 92h19v-261h-19q-8 64 -36.5 92t-89.5 28h-47v-317h119q84 0 122 39.5t55 141.5h19v-201zM509 740l-191 87l-190 -87l-3 20q35 24 87 84.5t68 75.5 q17 16 39 15.5t38 -15.5t68 -76.5t88 -83.5z" unicode="Ê" horiz-adv-x="648" glyph-name="Ecircumflex"/>
<glyph d="M588 0h-565v19h68v661h-68v20h556v-203h-20q-13 93 -54.5 137.5t-123.5 44.5h-108v-320h47q62 -1 89.5 27t36.5 92h19v-261h-19q-8 64 -36.5 92t-89.5 28h-47v-317h119q84 0 122 39.5t55 141.5h19v-201zM306 837q0 -38 -26 -62t-64 -24q-40 0 -64.5 23t-24.5 61 q0 37 26.5 61t64.5 24q39 0 63.5 -23t24.5 -60zM525 837q0 -38 -26.5 -62t-64.5 -24q-40 0 -64.5 23t-24.5 61q0 37 26 61t64 24q40 0 65 -23t25 -60z" unicode="Ë" horiz-adv-x="648" glyph-name="Edieresis"/>
<glyph d="M348 0h-325v19h68v661h-68v20h325v-20h-68v-661h68v-19zM342 766v-22q-61 21 -151 33t-116 18q-62 14 -62 69q0 32 19.5 50t48.5 18q27 0 53 -15q30 -18 63 -49.5t67 -58.5t78 -43z" unicode="Ì" horiz-adv-x="371" glyph-name="Igrave"/>
<glyph d="M348 0h-325v19h68v661h-68v20h325v-20h-68v-661h68v-19zM17 744v22q58 21 119.5 78t88.5 73q26 15 53 15q30 0 49 -18t19 -50q0 -55 -62 -69q-26 -7 -116 -18.5t-151 -32.5z" unicode="Í" horiz-adv-x="371" glyph-name="Iacute"/>
<glyph d="M348 0h-325v19h68v661h-68v20h325v-20h-68v-661h68v-19zM374 740l-191 87l-190 -87l-3 20q35 24 87 84.5t68 75.5q17 16 39 15.5t38 -15.5t68 -76.5t88 -83.5z" unicode="Î" horiz-adv-x="371" glyph-name="Icircumflex"/>
<glyph d="M348 0h-325v19h68v661h-68v20h325v-20h-68v-661h68v-19zM166 837q0 -38 -26 -62t-64 -24q-40 0 -64.5 23t-24.5 61q0 37 26.5 61t64.5 24q39 0 63.5 -23t24.5 -60zM385 837q0 -38 -26.5 -62t-64.5 -24q-40 0 -64.5 23t-24.5 61q0 37 26 61t64 24q40 0 65 -23t25 -60z" unicode="Ï" horiz-adv-x="371" glyph-name="Idieresis"/>
<glyph d="M30 336v23h61v321h-68v20h333q177 0 280.5 -95t103.5 -251q0 -154 -110 -254t-274 -100h-333v19h68v317h-61zM275 19h70q100 0 148 87t48 242q0 150 -50.5 241t-145.5 91h-70v-321h143v-23h-143v-317z" unicode="Ð" horiz-adv-x="780" glyph-name="Eth"/>
<glyph d="M637 0h-171l-345 604v-470q0 -58 17.5 -86.5t45.5 -28.5h11v-19h-172v19h11q28 0 45.5 28.5t17.5 86.5v546h-67v20h251l332 -595v461q0 58 -17.5 86.5t-45.5 28.5h-11v19h172v-19h-11q-28 0 -45.5 -28.5t-17.5 -86.5v-566zM572 899h18q-13 -69 -48 -109t-92 -40 q-38 0 -71 19.5t-60.5 39t-50.5 19.5q-55 0 -72 -62h-18q30 151 140 151q43 0 93 -40t88 -40q54 0 73 62z" unicode="Ñ" horiz-adv-x="729" glyph-name="Ntilde"/>
<glyph d="M767 354q0 -157 -101.5 -261t-262.5 -104q-174 0 -268.5 99t-94.5 258q0 157 101 260.5t262 103.5q174 0 269 -98.5t95 -257.5zM403 10q50 0 83.5 24.5t50.5 73.5t23.5 105t6.5 135q0 75 -7.5 132.5t-25 106.5t-51 75.5t-80.5 26.5q-50 0 -83.5 -24.5t-50.5 -73.5 t-23.5 -105t-6.5 -134q0 -342 164 -342zM563 766v-22q-61 21 -151 33t-116 18q-62 14 -62 69q0 32 19.5 50t48.5 18q28 0 53 -15q30 -18 63 -49.5t67 -58.5t78 -43z" unicode="Ò" horiz-adv-x="807" glyph-name="Ograve"/>
<glyph d="M767 354q0 -157 -101.5 -261t-262.5 -104q-174 0 -268.5 99t-94.5 258q0 157 101 260.5t262 103.5q174 0 269 -98.5t95 -257.5zM403 10q50 0 83.5 24.5t50.5 73.5t23.5 105t6.5 135q0 75 -7.5 132.5t-25 106.5t-51 75.5t-80.5 26.5q-50 0 -83.5 -24.5t-50.5 -73.5 t-23.5 -105t-6.5 -134q0 -342 164 -342zM245 744v22q58 21 119.5 78t88.5 73q26 15 53 15q30 0 49 -18t19 -50q0 -55 -62 -69q-26 -7 -116 -18.5t-151 -32.5z" unicode="Ó" horiz-adv-x="807" glyph-name="Oacute"/>
<glyph d="M767 354q0 -157 -101.5 -261t-262.5 -104q-174 0 -268.5 99t-94.5 258q0 157 101 260.5t262 103.5q174 0 269 -98.5t95 -257.5zM403 10q50 0 83.5 24.5t50.5 73.5t23.5 105t6.5 135q0 75 -7.5 132.5t-25 106.5t-51 75.5t-80.5 26.5q-50 0 -83.5 -24.5t-50.5 -73.5 t-23.5 -105t-6.5 -134q0 -342 164 -342zM590 740l-191 87l-190 -87l-3 20q35 24 87 84.5t68 75.5q17 16 39 15.5t38 -15.5t68 -76.5t88 -83.5z" unicode="Ô" horiz-adv-x="807" glyph-name="Ocircumflex"/>
<glyph d="M767 354q0 -157 -101.5 -261t-262.5 -104q-174 0 -268.5 99t-94.5 258q0 157 101 260.5t262 103.5q174 0 269 -98.5t95 -257.5zM403 10q50 0 83.5 24.5t50.5 73.5t23.5 105t6.5 135q0 75 -7.5 132.5t-25 106.5t-51 75.5t-80.5 26.5q-50 0 -83.5 -24.5t-50.5 -73.5 t-23.5 -105t-6.5 -134q0 -342 164 -342zM593 899h18q-13 -69 -48 -109t-92 -40q-38 0 -71 19.5t-60.5 39t-50.5 19.5q-55 0 -72 -62h-18q30 151 140 151q43 0 93 -40t88 -40q54 0 73 62z" unicode="Õ" horiz-adv-x="807" glyph-name="Otilde"/>
<glyph d="M767 354q0 -157 -101.5 -261t-262.5 -104q-174 0 -268.5 99t-94.5 258q0 157 101 260.5t262 103.5q174 0 269 -98.5t95 -257.5zM403 10q50 0 83.5 24.5t50.5 73.5t23.5 105t6.5 135q0 75 -7.5 132.5t-25 106.5t-51 75.5t-80.5 26.5q-50 0 -83.5 -24.5t-50.5 -73.5 t-23.5 -105t-6.5 -134q0 -342 164 -342zM387 837q0 -38 -26 -62t-64 -24q-40 0 -64.5 23t-24.5 61q0 37 26.5 61t64.5 24q39 0 63.5 -23t24.5 -60zM606 837q0 -38 -26.5 -62t-64.5 -24q-40 0 -64.5 23t-24.5 61q0 37 26 61t64 24q40 0 65 -23t25 -60z" unicode="Ö" horiz-adv-x="807" glyph-name="Odieresis"/>
<glyph d="M482 92l-41 -39l-149 148l-148 -148l-40 40l148 149l-148 148l39 40l149 -148l150 149l40 -39l-150 -150z" unicode="×" glyph-name="multiply"/>
<glyph d="M188 -50h-32l50 84q-81 44 -123.5 125t-42.5 187q0 157 101 260.5t262 103.5q105 0 186 -39l42 70h32l-50 -84q75 -45 114.5 -124t39.5 -179q0 -157 -101.5 -261t-262.5 -104q-97 0 -172 33zM239 352q0 -143 26 -221l271 452q-41 106 -133 106q-50 0 -83.5 -24.5 t-50.5 -73.5t-23.5 -105t-6.5 -134zM403 10q50 0 83.5 24.5t50.5 73.5t23.5 105t6.5 135q0 119 -20 200l-270 -449q40 -89 126 -89z" unicode="Ø" horiz-adv-x="807" glyph-name="Oslash"/>
<glyph d="M614 251v315q0 58 -17.5 86.5t-45.5 28.5h-11v19h172v-19h-11q-28 0 -45.5 -28.5t-17.5 -86.5v-316q0 -114 -80 -186.5t-198 -72.5q-120 0 -197 71t-77 179v439h-68v20h324v-20h-67v-434q0 -77 48 -124.5t122 -47.5q75 0 122 46.5t47 130.5zM538 766v-22q-61 21 -151 33 t-116 18q-62 14 -62 69q0 32 19.5 50t48.5 18q27 0 53 -15q30 -18 63 -49.5t67 -58.5t78 -43z" unicode="Ù" horiz-adv-x="730" glyph-name="Ugrave"/>
<glyph d="M614 251v315q0 58 -17.5 86.5t-45.5 28.5h-11v19h172v-19h-11q-28 0 -45.5 -28.5t-17.5 -86.5v-316q0 -114 -80 -186.5t-198 -72.5q-120 0 -197 71t-77 179v439h-68v20h324v-20h-67v-434q0 -77 48 -124.5t122 -47.5q75 0 122 46.5t47 130.5zM234 744v22q58 21 119.5 78 t88.5 73q26 15 53 15q30 0 49 -18t19 -50q0 -55 -62 -69q-26 -7 -116 -18.5t-151 -32.5z" unicode="Ú" horiz-adv-x="730" glyph-name="Uacute"/>
<glyph d="M614 251v315q0 58 -17.5 86.5t-45.5 28.5h-11v19h172v-19h-11q-28 0 -45.5 -28.5t-17.5 -86.5v-316q0 -114 -80 -186.5t-198 -72.5q-120 0 -197 71t-77 179v439h-68v20h324v-20h-67v-434q0 -77 48 -124.5t122 -47.5q75 0 122 46.5t47 130.5zM571 740l-191 87l-190 -87 l-3 20q35 24 87 84.5t68 75.5q17 16 39 15.5t38 -15.5t68 -76.5t88 -83.5z" unicode="Û" horiz-adv-x="730" glyph-name="Ucircumflex"/>
<glyph d="M614 251v315q0 58 -17.5 86.5t-45.5 28.5h-11v19h172v-19h-11q-28 0 -45.5 -28.5t-17.5 -86.5v-316q0 -114 -80 -186.5t-198 -72.5q-120 0 -197 71t-77 179v439h-68v20h324v-20h-67v-434q0 -77 48 -124.5t122 -47.5q75 0 122 46.5t47 130.5zM358 837q0 -38 -26 -62 t-64 -24q-40 0 -64.5 23t-24.5 61q0 37 26.5 61t64.5 24q39 0 63.5 -23t24.5 -60zM577 837q0 -38 -26.5 -62t-64.5 -24q-40 0 -64.5 23t-24.5 61q0 37 26 61t64 24q40 0 65 -23t25 -60z" unicode="Ü" horiz-adv-x="730" glyph-name="Udieresis"/>
<glyph d="M547 0h-323v19h67v310l-215 351h-61v20h336v-20h-63l183 -299l128 205q27 39 22 67.5t-46 28.5h-16v18h213v-18h-10q-70 0 -142 -108l-140 -220v-335h67v-19zM246 744v22q58 21 119.5 78t88.5 73q25 15 53 15q30 0 49 -18t19 -50q0 -55 -62 -69q-26 -7 -116 -18.5 t-151 -32.5z" unicode="Ý" horiz-adv-x="787" glyph-name="Yacute"/>
<glyph d="M273 199h68q67 0 97 46t30 121q0 73 -30 119.5t-93 46.5h-72v-333zM344 0h-321v19h68v661h-68v20h317v-20h-67v-127h104q132 0 204 -47t72 -137t-80.5 -140.5t-209.5 -50.5h-90v-159h71v-19z" unicode="Þ" horiz-adv-x="660" glyph-name="Thorn"/>
<glyph d="M219 0h-202v19h50v501q0 102 62 159.5t168 57.5q101 0 158.5 -39.5t57.5 -102.5q0 -31 -13 -54.5t-31.5 -38t-36.5 -27.5t-31 -31t-13 -41q0 -24 19.5 -43t47 -35t55.5 -35t47.5 -51.5t19.5 -76.5q0 -75 -58.5 -122.5t-141.5 -47.5q-57 0 -91.5 28.5t-34.5 72.5 q0 32 19 51t49 19q28 0 45.5 -16.5t17.5 -42.5t-18 -42t-41 -16q-9 0 -9 -9q0 -12 14.5 -20t36.5 -8q37 0 57 26.5t20 69.5q0 35 -17.5 64t-42 49l-49 40t-42 46.5t-17.5 57.5t14 58.5t30 46.5t30 57t14 88q0 51 -18 79.5t-51 28.5q-74 0 -74 -122v-598z" unicode="ß" horiz-adv-x="603" glyph-name="germandbls"/>
<glyph d="M313 115v160q-14 -14 -51 -38t-55 -50t-18 -71q0 -34 17.5 -53t42.5 -19q29 0 46.5 19.5t17.5 51.5zM527 97h18q0 -43 -27.5 -75t-82.5 -32q-94 0 -114 81q-55 -82 -146 -82q-59 0 -98.5 31t-39.5 84q0 48 29 75t70.5 38.5l83 23t70.5 40.5t29 79q0 85 -93 85 q-35 0 -59 -13t-24 -29q0 -7 10 -7q29 0 49 -16.5t20 -46.5t-24 -50t-60 -20q-33 0 -55 21.5t-22 53.5q0 55 53 92.5t146 37.5q99 0 152 -42.5t53 -123.5v-206q0 -44 28 -44q15 0 24.5 13t9.5 32zM451 575v-22q-61 21 -151 33t-116 18q-62 14 -62 69q0 32 19.5 50t48.5 18 q28 0 53 -15q30 -18 63 -49.5t67 -58.5t78 -43z" unicode="à" horiz-adv-x="556" glyph-name="agrave"/>
<glyph d="M313 115v160q-14 -14 -51 -38t-55 -50t-18 -71q0 -34 17.5 -53t42.5 -19q29 0 46.5 19.5t17.5 51.5zM527 97h18q0 -43 -27.5 -75t-82.5 -32q-94 0 -114 81q-55 -82 -146 -82q-59 0 -98.5 31t-39.5 84q0 48 29 75t70.5 38.5l83 23t70.5 40.5t29 79q0 85 -93 85 q-35 0 -59 -13t-24 -29q0 -7 10 -7q29 0 49 -16.5t20 -46.5t-24 -50t-60 -20q-33 0 -55 21.5t-22 53.5q0 55 53 92.5t146 37.5q99 0 152 -42.5t53 -123.5v-206q0 -44 28 -44q15 0 24.5 13t9.5 32zM127 553v22q58 21 119.5 78t88.5 73q25 15 53 15q30 0 49 -18t19 -50 q0 -55 -62 -69q-26 -7 -116 -18.5t-151 -32.5z" unicode="á" horiz-adv-x="556" glyph-name="aacute"/>
<glyph d="M313 115v160q-14 -14 -51 -38t-55 -50t-18 -71q0 -34 17.5 -53t42.5 -19q29 0 46.5 19.5t17.5 51.5zM527 97h18q0 -43 -27.5 -75t-82.5 -32q-94 0 -114 81q-55 -82 -146 -82q-59 0 -98.5 31t-39.5 84q0 48 29 75t70.5 38.5l83 23t70.5 40.5t29 79q0 85 -93 85 q-35 0 -59 -13t-24 -29q0 -7 10 -7q29 0 49 -16.5t20 -46.5t-24 -50t-60 -20q-33 0 -55 21.5t-22 53.5q0 55 53 92.5t146 37.5q99 0 152 -42.5t53 -123.5v-206q0 -44 28 -44q15 0 24.5 13t9.5 32zM471 547l-191 87l-190 -87l-3 20q35 24 87 84.5t68 75.5q17 16 39 15.5 t38 -15.5t68 -76.5t88 -83.5z" unicode="â" horiz-adv-x="556" glyph-name="acircumflex"/>
<glyph d="M313 115v160q-14 -14 -51 -38t-55 -50t-18 -71q0 -34 17.5 -53t42.5 -19q29 0 46.5 19.5t17.5 51.5zM527 97h18q0 -43 -27.5 -75t-82.5 -32q-94 0 -114 81q-55 -82 -146 -82q-59 0 -98.5 31t-39.5 84q0 48 29 75t70.5 38.5l83 23t70.5 40.5t29 79q0 85 -93 85 q-35 0 -59 -13t-24 -29q0 -7 10 -7q29 0 49 -16.5t20 -46.5t-24 -50t-60 -20q-33 0 -55 21.5t-22 53.5q0 55 53 92.5t146 37.5q99 0 152 -42.5t53 -123.5v-206q0 -44 28 -44q15 0 24.5 13t9.5 32zM474 717h18q-13 -69 -48 -109t-92 -40q-38 0 -71 19.5t-60.5 39t-50.5 19.5 q-55 0 -72 -62h-18q30 151 140 151q43 0 93 -40t88 -40q54 0 73 62z" unicode="ã" horiz-adv-x="556" glyph-name="atilde"/>
<glyph d="M313 115v160q-14 -14 -51 -38t-55 -50t-18 -71q0 -34 17.5 -53t42.5 -19q29 0 46.5 19.5t17.5 51.5zM527 97h18q0 -43 -27.5 -75t-82.5 -32q-94 0 -114 81q-55 -82 -146 -82q-59 0 -98.5 31t-39.5 84q0 48 29 75t70.5 38.5l83 23t70.5 40.5t29 79q0 85 -93 85 q-35 0 -59 -13t-24 -29q0 -7 10 -7q29 0 49 -16.5t20 -46.5t-24 -50t-60 -20q-33 0 -55 21.5t-22 53.5q0 55 53 92.5t146 37.5q99 0 152 -42.5t53 -123.5v-206q0 -44 28 -44q15 0 24.5 13t9.5 32zM256 650q0 -38 -26 -62t-64 -24q-40 0 -64.5 23t-24.5 61q0 37 26.5 61 t64.5 24q39 0 63.5 -23t24.5 -60zM475 650q0 -38 -26.5 -62t-64.5 -24q-40 0 -64.5 23t-24.5 61q0 37 26 61t64 24q40 0 65 -23t25 -60z" unicode="ä" horiz-adv-x="556" glyph-name="adieresis"/>
<glyph d="M313 115v160q-14 -14 -51 -38t-55 -50t-18 -71q0 -34 17.5 -53t42.5 -19q29 0 46.5 19.5t17.5 51.5zM527 97h18q0 -43 -27.5 -75t-82.5 -32q-94 0 -114 81q-55 -82 -146 -82q-59 0 -98.5 31t-39.5 84q0 48 29 75t70.5 38.5l83 23t70.5 40.5t29 79q0 85 -93 85 q-35 0 -59 -13t-24 -29q0 -7 10 -7q29 0 49 -16.5t20 -46.5t-24 -50t-60 -20q-33 0 -55 21.5t-22 53.5q0 55 53 92.5t146 37.5q99 0 152 -42.5t53 -123.5v-206q0 -44 28 -44q15 0 24.5 13t9.5 32zM284 569q52 0 52 93q0 94 -50 94q-51 0 -51 -93q0 -94 49 -94zM421 664 q0 -52 -39 -84t-98 -32q-60 0 -97.5 31t-37.5 82q0 52 39.5 84t97.5 32q60 0 97.5 -31t37.5 -82z" unicode="å" horiz-adv-x="556" glyph-name="aring"/>
<glyph d="M729 140h23q-8 -66 -60 -108t-142 -42q-139 0 -202 96q-4 -10 -13.5 -22.5t-28.5 -31t-53 -30.5t-76 -12q-58 0 -97.5 31t-39.5 83q0 48 29 75t70.5 38t83 22.5t70.5 40.5t29 80q0 85 -93 85q-35 0 -59 -13t-24 -29q0 -7 11 -7q29 0 48.5 -17t19.5 -46q0 -31 -23.5 -50.5 t-59.5 -19.5q-33 0 -55 20.5t-22 54.5q0 55 53 92.5t145 37.5q90 0 141 -45q60 46 145 46q100 0 156 -59.5t55 -158.5h-295v-15q0 -197 141 -197q50 0 83 27t40 74zM465 270h142q1 94 -14 136t-48 42q-34 0 -55.5 -46t-24.5 -132zM312 267q-13 -13 -49.5 -36t-53.5 -47.5 t-17 -67.5q0 -34 18 -53t44 -19q31 0 51 20t20 55q0 11 -8 42t-8 65q0 17 3 41z" unicode="æ" horiz-adv-x="798" glyph-name="ae"/>
<glyph d="M448 138h21q-7 -65 -57.5 -106.5t-136.5 -41.5l-62 -54q27 9 60 9q63 0 95 -21t32 -56q0 -38 -40.5 -65t-114.5 -27q-54 0 -80 19.5t-26 46.5q0 17 10.5 27.5t28.5 10.5q16 0 26 -9.5t10 -23.5t-7.5 -21t-16.5 -7q-5 0 -5 -6q0 -18 40 -18q28 0 44 17.5t16 49.5 q0 60 -53 60q-14 0 -25.5 -3.5t-16.5 -6.5l-4 -4h-27l90 83q-94 8 -148 72t-54 165q0 105 67 173t175 68q87 0 134.5 -42t47.5 -101q0 -39 -23.5 -63.5t-61.5 -24.5q-35 0 -57.5 21.5t-22.5 53.5q0 35 25.5 56.5t60.5 21.5q11 0 11 8q0 18 -21 32t-56 14q-57 0 -89 -53 t-32 -159q0 -92 32.5 -143t98.5 -51q44 0 74.5 26.5t37.5 72.5z" unicode="ç" horiz-adv-x="510" glyph-name="ccedilla"/>
<glyph d="M468 140h23q-8 -66 -60 -108t-142 -42q-112 0 -177 65t-65 171t66.5 174.5t174.5 68.5q100 0 155.5 -59.5t54.5 -158.5h-294v-15q0 -197 141 -197q50 0 83 27t40 74zM204 270h142q0 94 -15 136t-48 42t-54.5 -46t-24.5 -132zM451 575v-22q-61 21 -151 33t-116 18 q-62 14 -62 69q0 32 19.5 50t48.5 18q28 0 53 -15q30 -18 63 -49.5t67 -58.5t78 -43z" unicode="è" horiz-adv-x="537" glyph-name="egrave"/>
<glyph d="M468 140h23q-8 -66 -60 -108t-142 -42q-112 0 -177 65t-65 171t66.5 174.5t174.5 68.5q100 0 155.5 -59.5t54.5 -158.5h-294v-15q0 -197 141 -197q50 0 83 27t40 74zM204 270h142q0 94 -15 136t-48 42t-54.5 -46t-24.5 -132zM134 553v22q58 21 119.5 78t88.5 73 q26 15 53 15q30 0 49 -18t19 -50q0 -55 -62 -69q-26 -7 -116 -18.5t-151 -32.5z" unicode="é" horiz-adv-x="537" glyph-name="eacute"/>
<glyph d="M468 140h23q-8 -66 -60 -108t-142 -42q-112 0 -177 65t-65 171t66.5 174.5t174.5 68.5q100 0 155.5 -59.5t54.5 -158.5h-294v-15q0 -197 141 -197q50 0 83 27t40 74zM204 270h142q0 94 -15 136t-48 42t-54.5 -46t-24.5 -132zM475 547l-191 87l-190 -87l-3 20 q35 24 87 84.5t68 75.5q17 16 39 15.5t38 -15.5t68 -76.5t88 -83.5z" unicode="ê" horiz-adv-x="537" glyph-name="ecircumflex"/>
<glyph d="M468 140h23q-8 -66 -60 -108t-142 -42q-112 0 -177 65t-65 171t66.5 174.5t174.5 68.5q100 0 155.5 -59.5t54.5 -158.5h-294v-15q0 -197 141 -197q50 0 83 27t40 74zM204 270h142q0 94 -15 136t-48 42t-54.5 -46t-24.5 -132zM262 650q0 -38 -26 -62t-64 -24 q-40 0 -64.5 23t-24.5 61q0 37 26.5 61t64.5 24q39 0 63.5 -23t24.5 -60zM481 650q0 -38 -26.5 -62t-64.5 -24q-40 0 -64.5 23t-24.5 61q0 37 26 61t64 24q40 0 65 -23t25 -60z" unicode="ë" horiz-adv-x="537" glyph-name="edieresis"/>
<glyph d="M306 575v-22q-61 21 -151 33t-116 18q-62 14 -62 69q0 32 19.5 50t48.5 18q27 0 53 -15q30 -18 63 -49.5t67 -58.5t78 -43zM304 0h-272v19h60v420h-60v19h214v-439h58v-19z" unicode="ì" horiz-adv-x="321" glyph-name="igrave"/>
<glyph d="M-2 553v22q58 21 119.5 78t88.5 73q26 15 53 15q30 0 49 -18t19 -50q0 -55 -62 -69q-26 -7 -116 -18.5t-151 -32.5zM304 0h-272v19h60v420h-60v19h214v-439h58v-19z" unicode="í" horiz-adv-x="321" glyph-name="iacute"/>
<glyph d="M304 0h-272v19h60v420h-60v19h214v-439h58v-19zM351 547l-191 87l-190 -87l-3 20q35 24 87 84.5t68 75.5q17 16 39 15.5t38 -15.5t68 -76.5t88 -83.5z" unicode="î" horiz-adv-x="321" glyph-name="icircumflex"/>
<glyph d="M143 650q0 -38 -26 -62t-64 -24q-40 0 -64.5 23t-24.5 61q0 37 26.5 61t64.5 24q39 0 63.5 -23t24.5 -60zM362 650q0 -38 -26.5 -62t-64.5 -24q-40 0 -64.5 23t-24.5 61q0 37 26 61t64 24q40 0 65 -23t25 -60zM304 0h-272v19h60v420h-60v19h214v-439h58v-19z" unicode="ï" horiz-adv-x="321" glyph-name="idieresis"/>
<glyph d="M154 718v29q115 -23 207 -93l145 73v-27l-124 -63q79 -68 124 -164.5t45 -211.5q0 -127 -69.5 -199t-186.5 -72q-115 0 -181.5 65t-66.5 173q0 109 68.5 178t178.5 69q20 0 38 -4.5t26 -9.5l9 -5q-14 77 -59 144l-142 -72v29l127 63q-58 74 -139 98zM303 13q85 0 85 231 q0 104 -18 153t-65 49q-49 0 -71 -52t-22 -162t21.5 -164.5t69.5 -54.5z" unicode="ð" horiz-adv-x="597" glyph-name="eth"/>
<glyph d="M590 0h-259v19h46v342q0 31 -16.5 46.5t-42.5 15.5q-30 0 -52.5 -28t-22.5 -68v-308h49v-19h-261v19h58v421h-58v18h212v-65q57 76 145 76q71 0 107.5 -43.5t36.5 -123.5v-283h58v-19zM495 717h18q-13 -69 -48 -109t-92 -40q-38 0 -71 19.5t-60.5 39t-50.5 19.5 q-55 0 -72 -62h-18q30 151 140 151q43 0 93 -40t88 -40q54 0 73 62z" unicode="ñ" horiz-adv-x="606" glyph-name="ntilde"/>
<glyph d="M295 12q91 0 91 216q0 218 -87 218q-93 0 -93 -214q0 -220 89 -220zM545 233q0 -104 -72.5 -173t-177.5 -69q-109 0 -178.5 66t-69.5 170t73 172t179 68q108 0 177 -65t69 -169zM470 575v-22q-61 21 -151 33t-116 18q-62 14 -62 69q0 32 19.5 50t48.5 18q27 0 53 -15 q30 -18 63 -49.5t67 -58.5t78 -43z" unicode="ò" horiz-adv-x="592" glyph-name="ograve"/>
<glyph d="M295 12q91 0 91 216q0 218 -87 218q-93 0 -93 -214q0 -220 89 -220zM545 233q0 -104 -72.5 -173t-177.5 -69q-109 0 -178.5 66t-69.5 170t73 172t179 68q108 0 177 -65t69 -169zM147 553v22q58 21 119.5 78t88.5 73q26 15 53 15q30 0 49 -18t19 -50q0 -55 -62 -69 q-26 -7 -116 -18.5t-151 -32.5z" unicode="ó" horiz-adv-x="592" glyph-name="oacute"/>
<glyph d="M295 12q91 0 91 216q0 218 -87 218q-93 0 -93 -214q0 -220 89 -220zM545 233q0 -104 -72.5 -173t-177.5 -69q-109 0 -178.5 66t-69.5 170t73 172t179 68q108 0 177 -65t69 -169zM488 547l-191 87l-190 -87l-3 20q35 24 87 84.5t68 75.5q17 16 39 15.5t38 -15.5t68 -76.5 t88 -83.5z" unicode="ô" horiz-adv-x="592" glyph-name="ocircumflex"/>
<glyph d="M295 12q91 0 91 216q0 218 -87 218q-93 0 -93 -214q0 -220 89 -220zM545 233q0 -104 -72.5 -173t-177.5 -69q-109 0 -178.5 66t-69.5 170t73 172t179 68q108 0 177 -65t69 -169zM489 717h18q-13 -69 -48 -109t-92 -40q-38 0 -71 19.5t-60.5 39t-50.5 19.5q-55 0 -72 -62 h-18q30 151 140 151q43 0 93 -40t88 -40q54 0 73 62z" unicode="õ" horiz-adv-x="592" glyph-name="otilde"/>
<glyph d="M295 12q91 0 91 216q0 218 -87 218q-93 0 -93 -214q0 -220 89 -220zM545 233q0 -104 -72.5 -173t-177.5 -69q-109 0 -178.5 66t-69.5 170t73 172t179 68q108 0 177 -65t69 -169zM278 650q0 -38 -26 -62t-64 -24q-40 0 -64.5 23t-24.5 61q0 37 26.5 61t64.5 24 q39 0 63.5 -23t24.5 -60zM497 650q0 -38 -26.5 -62t-64.5 -24q-40 0 -64.5 23t-24.5 61q0 37 26 61t64 24q40 0 65 -23t25 -60z" unicode="ö" horiz-adv-x="592" glyph-name="odieresis"/>
<glyph d="M520 214h-453v57h453v-57zM373 91q0 -34 -24 -56.5t-60 -22.5q-38 0 -60.5 21.5t-22.5 56.5q0 34 24 56t60 22q38 0 60.5 -21t22.5 -56zM373 394q0 -34 -24 -56.5t-60 -22.5q-38 0 -60.5 21.5t-22.5 56.5q0 34 24 56t60 22q38 0 60.5 -21t22.5 -56z" unicode="÷" glyph-name="divide"/>
<glyph d="M147 -68h-29l50 88q-57 30 -89 84t-32 123q0 104 73 172t179 68q59 0 111 -22l45 79h29l-52 -90q53 -30 83 -82t30 -119q0 -104 -72.5 -173t-177.5 -69q-55 0 -104 19zM206 232q0 -73 11 -126l152 268q-22 72 -70 72q-93 0 -93 -214zM295 12q91 0 91 216q0 60 -8 110 l-151 -266q22 -60 68 -60z" unicode="ø" horiz-adv-x="592" glyph-name="oslash"/>
<glyph d="M574 97h18q0 -42 -29.5 -74.5t-85.5 -32.5q-93 0 -113 78q0 -1 -4.5 -7t-8 -10.5t-11 -12.5t-15 -14t-19 -13t-24 -11.5t-29.5 -7.5t-35 -3q-72 0 -108 43.5t-36 123.5v283h-59v19h214v-362q0 -30 15.5 -45.5t40.5 -15.5q30 0 52 27t22 67v310h-52v19h205v-362 q0 -44 29 -44q15 0 24 13t9 32zM447 575v-22q-61 21 -151 33t-116 18q-62 14 -62 69q0 32 19.5 50t48.5 18q28 0 53 -15q30 -18 63 -49.5t67 -58.5t78 -43z" unicode="ù" horiz-adv-x="604" glyph-name="ugrave"/>
<glyph d="M574 97h18q0 -42 -29.5 -74.5t-85.5 -32.5q-93 0 -113 78q0 -1 -4.5 -7t-8 -10.5t-11 -12.5t-15 -14t-19 -13t-24 -11.5t-29.5 -7.5t-35 -3q-72 0 -108 43.5t-36 123.5v283h-59v19h214v-362q0 -30 15.5 -45.5t40.5 -15.5q30 0 52 27t22 67v310h-52v19h205v-362 q0 -44 29 -44q15 0 24 13t9 32zM136 553v22q58 21 119.5 78t88.5 73q26 15 53 15q30 0 49 -18t19 -50q0 -55 -62 -69q-26 -7 -116 -18.5t-151 -32.5z" unicode="ú" horiz-adv-x="604" glyph-name="uacute"/>
<glyph d="M574 97h18q0 -42 -29.5 -74.5t-85.5 -32.5q-93 0 -113 78q0 -1 -4.5 -7t-8 -10.5t-11 -12.5t-15 -14t-19 -13t-24 -11.5t-29.5 -7.5t-35 -3q-72 0 -108 43.5t-36 123.5v283h-59v19h214v-362q0 -30 15.5 -45.5t40.5 -15.5q30 0 52 27t22 67v310h-52v19h205v-362 q0 -44 29 -44q15 0 24 13t9 32zM478 547l-191 87l-190 -87l-3 20q35 24 87 84.5t68 75.5q17 16 39 15.5t38 -15.5t68 -76.5t88 -83.5z" unicode="û" horiz-adv-x="604" glyph-name="ucircumflex"/>
<glyph d="M574 97h18q0 -42 -29.5 -74.5t-85.5 -32.5q-93 0 -113 78q0 -1 -4.5 -7t-8 -10.5t-11 -12.5t-15 -14t-19 -13t-24 -11.5t-29.5 -7.5t-35 -3q-72 0 -108 43.5t-36 123.5v283h-59v19h214v-362q0 -30 15.5 -45.5t40.5 -15.5q30 0 52 27t22 67v310h-52v19h205v-362 q0 -44 29 -44q15 0 24 13t9 32zM265 650q0 -38 -26 -62t-64 -24q-40 0 -64.5 23t-24.5 61q0 37 26.5 61t64.5 24q39 0 63.5 -23t24.5 -60zM484 650q0 -38 -26.5 -62t-64.5 -24q-40 0 -64.5 23t-24.5 61q0 37 26 61t64 24q40 0 65 -23t25 -60z" unicode="ü" horiz-adv-x="604" glyph-name="udieresis"/>
<glyph d="M277 -59l14 37l-217 461h-59v19h282v-19h-60l123 -285l78 198q16 35 5.5 62t-48.5 27h-16v17h187v-17h-13q-57 0 -93 -94l-163 -411q-29 -73 -61 -106t-77 -33q-53 0 -82 29t-29 75q0 32 21 53.5t52 21.5q32 0 49.5 -17t17.5 -45t-18 -44.5t-45 -16.5q-12 0 -15 -5 q2 -32 50 -32q37 0 64.5 30t52.5 95zM162 553v22q58 21 119.5 78t88.5 73q25 15 53 15q30 0 49 -18t19 -50q0 -55 -62 -69q-26 -7 -116 -18.5t-151 -32.5z" unicode="ý" horiz-adv-x="581" glyph-name="yacute"/>
<glyph d="M225 336v-206q0 -45 19 -66.5t49 -21.5q94 0 94 193q0 192 -92 192q-31 0 -50.5 -22.5t-19.5 -68.5zM283 -189h-273v18h60v880h-60v19h215v-315q41 56 126 56q90 0 143 -62.5t53 -166.5q0 -106 -55 -173t-143 -67q-35 0 -64.5 12t-41 22.5t-18.5 19.5v-225h58v-18z" unicode="þ" horiz-adv-x="593" glyph-name="thorn"/>
</font>
</defs>
</svg>
